<svg width="25" height="27" viewBox="0 0 25 27" fill="none" xmlns="http://www.w3.org/2000/svg">
<path d="M12.5054 6.98623C8.95626 6.98623 6.09354 9.89189 6.09354 13.4942C6.09354 17.0966 8.95626 20.0022 12.5054 20.0022C16.0545 20.0022 18.9172 17.0966 18.9172 13.4942C18.9172 9.89189 16.0545 6.98623 12.5054 6.98623ZM12.5054 17.7253C10.2118 17.7253 8.33684 15.8278 8.33684 13.4942C8.33684 11.1606 10.2063 9.26318 12.5054 9.26318C14.8045 9.26318 16.6739 11.1606 16.6739 13.4942C16.6739 15.8278 14.7989 17.7253 12.5054 17.7253ZM20.675 6.72002C20.675 7.56396 20.0054 8.23799 19.1795 8.23799C18.348 8.23799 17.6839 7.5583 17.6839 6.72002C17.6839 5.88174 18.3536 5.20205 19.1795 5.20205C20.0054 5.20205 20.675 5.88174 20.675 6.72002ZM24.9217 8.26064C24.8268 6.22725 24.3692 4.42607 22.9016 2.94209C21.4395 1.45811 19.665 0.993652 17.6616 0.891699C15.5969 0.772754 9.40827 0.772754 7.34354 0.891699C5.34577 0.987988 3.57122 1.45244 2.10359 2.93643C0.635952 4.42041 0.183943 6.22158 0.0834961 8.25498C-0.0336914 10.3507 -0.0336914 16.6321 0.0834961 18.7278C0.178362 20.7612 0.635952 22.5624 2.10359 24.0464C3.57122 25.5304 5.34019 25.9948 7.34354 26.0968C9.40827 26.2157 15.5969 26.2157 17.6616 26.0968C19.665 26.0005 21.4395 25.536 22.9016 24.0464C24.3636 22.5624 24.8212 20.7612 24.9217 18.7278C25.0389 16.6321 25.0389 10.3563 24.9217 8.26064ZM22.2543 20.9765C21.819 22.0866 20.9764 22.9419 19.877 23.3894C18.2308 24.052 14.3246 23.8991 12.5054 23.8991C10.6862 23.8991 6.77434 24.0464 5.13372 23.3894C4.03997 22.9476 3.19734 22.0923 2.75649 20.9765C2.10359 19.3056 2.25426 15.3407 2.25426 13.4942C2.25426 11.6478 2.10917 7.67725 2.75649 6.01201C3.19176 4.90186 4.03439 4.04658 5.13372 3.59912C6.77992 2.93643 10.6862 3.08936 12.5054 3.08936C14.3246 3.08936 18.2364 2.94209 19.877 3.59912C20.9708 4.04092 21.8134 4.89619 22.2543 6.01201C22.9072 7.68291 22.7565 11.6478 22.7565 13.4942C22.7565 15.3407 22.9072 19.3112 22.2543 20.9765Z" fill="white"/>
</svg>
