<svg width="25" height="27" viewBox="0 0 25 27" fill="none" xmlns="http://www.w3.org/2000/svg">
<path d="M23.2143 0.8125H1.78013C0.797991 0.8125 0 1.63379 0 2.64199V24.358C0 25.3662 0.797991 26.1875 1.78013 26.1875H23.2143C24.1964 26.1875 25 25.3662 25 24.358V2.64199C25 1.63379 24.1964 0.8125 23.2143 0.8125ZM7.5558 22.5625H3.85045V10.4527H7.56138V22.5625H7.5558ZM5.70312 8.79883C4.51451 8.79883 3.55469 7.81895 3.55469 6.61816C3.55469 5.41738 4.51451 4.4375 5.70312 4.4375C6.88616 4.4375 7.85156 5.41738 7.85156 6.61816C7.85156 7.82461 6.89174 8.79883 5.70312 8.79883ZM21.4453 22.5625H17.74V16.6719C17.74 15.2672 17.7121 13.4604 15.8147 13.4604C13.8839 13.4604 13.5882 14.9896 13.5882 16.5699V22.5625H9.88281V10.4527H13.4375V12.1066H13.4877C13.9844 11.1551 15.1953 10.1525 16.9978 10.1525C20.7478 10.1525 21.4453 12.6617 21.4453 15.9242V22.5625Z" fill="white"/>
</svg>
