<svg width="23" height="25" viewBox="0 0 23 25" fill="none" xmlns="http://www.w3.org/2000/svg">
<path fill-rule="evenodd" clip-rule="evenodd" d="M10.2038 18.9988C9.64687 19.8007 9.33026 20.7682 9.33026 21.7877V24.8573H12.368V24.8571H13.6698V15.4883C13.6698 14.1141 13.2718 12.7912 12.5516 11.6653L20.0435 19.4598L22.9995 16.5038L18.0996 11.6039C17.1686 10.6729 16.032 10.0174 14.8096 9.66831H22.9999V5.9796H12.7961C13.353 5.17774 13.6696 4.21021 13.6696 3.19069V0.121133H10.6318V0.121285H9.33009V9.49009C9.33009 10.8645 9.72821 12.1874 10.4485 13.3133L2.95636 5.51863L0.000362954 8.47463L4.90028 13.3745C5.83124 14.3055 6.96787 14.9611 8.19022 15.3101H-2.61456e-05V18.9988H10.2038Z" fill="#FFFEEA"/>
</svg>
