<svg width="21" height="34" viewBox="0 0 21 34" fill="none" xmlns="http://www.w3.org/2000/svg">
<path fill-rule="evenodd" clip-rule="evenodd" d="M17.8659 2.8977C18.5127 3.50955 19.0722 4.19703 19.5264 4.94981C20.4203 6.40382 20.929 8.095 20.929 9.89962V24.5256C20.929 24.6494 20.8236 24.7491 20.6928 24.7491H15.9329C15.8021 24.7491 15.6967 24.6494 15.6967 24.5256V9.89962C15.6967 8.53155 15.1117 7.2941 14.1634 6.40038C13.215 5.49979 11.8961 4.94294 10.4427 4.94981C7.53588 4.96012 5.23224 7.2941 5.23224 10.044V24.5256C5.23224 24.6494 5.12687 24.7491 4.99606 24.7491H0.236177C0.105371 24.7491 0 24.6494 0 24.5256V9.89962C0 8.095 0.50869 6.40382 1.40253 4.94981C2.31817 3.44768 3.6444 2.19304 5.23224 1.32682C6.76921 0.481232 8.55689 0 10.4645 0C12.3721 0 14.1597 0.481232 15.6967 1.32682C16.4925 1.7565 17.2192 2.28585 17.8659 2.8977ZM10.6589 33.8965L13.3768 29.8989H13.3731C14.4051 28.3796 14.1144 26.3722 12.6864 25.1725L10.6153 23.4298C10.5281 23.3541 10.3937 23.3541 10.3028 23.4298L8.23174 25.1725C6.80377 26.3722 6.51309 28.3796 7.54501 29.8989L10.2629 33.8965C10.3537 34.034 10.5644 34.034 10.6589 33.8965Z" fill="url(#paint0_linear_3610_1369)"/>
<defs>
<linearGradient id="paint0_linear_3610_1369" x1="19.9222" y1="5.1864" x2="-0.943074" y2="5.88634" gradientUnits="userSpaceOnUse">
<stop stop-color="#FF9A51"/>
<stop offset="1" stop-color="#F17743"/>
</linearGradient>
</defs>
</svg>
