<svg width="131" height="35" viewBox="0 0 131 35" fill="none" xmlns="http://www.w3.org/2000/svg">
<path d="M9.91323 12.0908V8.31746C9.92707 8.13699 9.87093 7.958 9.75576 7.81546C9.6406 7.67292 9.47469 7.57707 9.29044 7.54663C9.10619 7.57707 8.94028 7.67292 8.82511 7.81546C8.70995 7.958 8.65381 8.13699 8.66765 8.31746V11.0278C8.66765 12.4296 9.08819 12.672 12.9341 14.7576L14.2824 15.4818C17.682 17.3218 18.5809 19.5473 18.5809 25.2041V25.8258C18.5809 31.579 15.1331 34.8208 9.13956 34.8208C3.14604 34.8208 0 31.6784 0 25.8289V22.7207H8.66765V26.5033C8.65287 26.6839 8.70819 26.8633 8.82277 27.0064C8.93736 27.1495 9.10298 27.2461 9.28723 27.2773C9.46468 27.2515 9.62615 27.1634 9.74097 27.0299C9.85578 26.8964 9.91594 26.7267 9.91002 26.5531V23.6998C9.91002 22.298 9.48947 22.1022 6.05773 20.2186L4.4526 19.3452C0.963072 17.4586 0 15.0404 0 9.38356V8.94842C0 3.10817 3.24555 0 9.14277 0C15.1363 0 18.5841 3.24182 18.5841 8.94842V12.0908H9.91323Z" fill="#FFFFEC"/>
<path d="M37.3797 8.02802H32.8854V34.3387H23.8967V8.02802H19.4023V0.484497H37.3797V8.02802Z" fill="#FFFFEC"/>
<path d="M48.045 0.484497C53.9904 0.484497 57.435 3.38442 57.435 9.52927V9.7686C57.435 15.4286 54.488 18.4963 52.3403 18.4963V18.4559C54.4398 18.4559 57.435 21.9091 57.435 27.0842V27.4727C57.435 30.0339 57.4606 34.3884 57.4606 34.3884L48.793 34.3387C48.793 34.3387 48.9021 30.1116 48.7673 27.3733V23.0218C48.7673 22.3443 48.4463 22.2479 47.9455 22.2479H47.1943V34.3387H38.8477V0.484497H48.045ZM47.5153 14.7013H47.9359C48.4367 14.7013 48.7577 14.6049 48.7577 13.9304V8.75534C48.7577 8.1337 48.4367 8.02802 47.9359 8.02802H47.5153V14.7013Z" fill="#FFFFEC"/>
<path d="M67.947 0.586304V34.4645H58.8867V0.586304H67.947Z" fill="#FFFFEC"/>
<path d="M77.7522 0.484497L78.0732 24.0164C78.0732 24.1758 78.1384 24.3287 78.2545 24.4417C78.3706 24.5547 78.5282 24.6186 78.6928 24.6194C78.858 24.6194 79.0164 24.5559 79.1332 24.4428C79.25 24.3297 79.3156 24.1764 79.3156 24.0164L79.6366 0.484497H87.9832L85.5884 34.3387H71.5917L69.4023 0.484497H77.7522Z" fill="#FFFFEC"/>
<path d="M98.3786 8.02802V12.7182H102.372V20.2649H98.3786V26.792H102.372V34.3356H89.3867V0.484497H102.372V8.02802H98.3786Z" fill="#FFFFEC"/>
<path fill-rule="evenodd" clip-rule="evenodd" d="M127.866 2.8977C128.513 3.50955 129.072 4.19703 129.526 4.94981C130.42 6.40382 130.929 8.095 130.929 9.89962V24.5256C130.929 24.6494 130.824 24.7491 130.693 24.7491H125.933C125.802 24.7491 125.697 24.6494 125.697 24.5256V9.89962C125.697 8.53155 125.112 7.2941 124.163 6.40038C123.215 5.49979 121.896 4.94294 120.443 4.94981C117.536 4.96012 115.232 7.2941 115.232 10.044V24.5256C115.232 24.6494 115.127 24.7491 114.996 24.7491H110.236C110.105 24.7491 110 24.6494 110 24.5256V9.89962C110 8.095 110.509 6.40382 111.403 4.94981C112.318 3.44768 113.644 2.19304 115.232 1.32682C116.769 0.481232 118.557 0 120.464 0C122.372 0 124.16 0.481232 125.697 1.32682C126.492 1.7565 127.219 2.28585 127.866 2.8977ZM120.659 33.8965L123.377 29.8989H123.373C124.405 28.3796 124.114 26.3722 122.686 25.1725L120.615 23.4298C120.528 23.3541 120.394 23.3541 120.303 23.4298L118.232 25.1725C116.804 26.3722 116.513 28.3796 117.545 29.8989L120.263 33.8965C120.354 34.034 120.564 34.034 120.659 33.8965Z" fill="url(#paint0_linear_3610_1357)"/>
<defs>
<linearGradient id="paint0_linear_3610_1357" x1="129.922" y1="5.1864" x2="109.057" y2="5.88634" gradientUnits="userSpaceOnUse">
<stop stop-color="#FF9A51"/>
<stop offset="1" stop-color="#F17743"/>
</linearGradient>
</defs>
</svg>
