<svg width="128" height="50" viewBox="0 0 128 50" fill="none" xmlns="http://www.w3.org/2000/svg">
<path d="M6.20638 37.9681H2.41209V41.3287H5.92181V42.3518H2.41209V46.6543H1.2738V36.9382H6.20638V37.9681ZM13.1987 46.6543H8.04933V36.9382H12.9819V37.9681H9.18762V41.2H12.6973V42.2231H9.18762V45.6244H13.1987V46.6543ZM20.1098 46.6543H15.0688V36.9382H16.2071V45.6244H20.1098V46.6543ZM26.6414 46.6543H21.6004V36.9382H22.7387V45.6244H26.6414V46.6543ZM31.9127 46.8169C30.535 46.8169 29.4306 46.3629 28.5995 45.455C27.7729 44.5471 27.3596 43.3659 27.3596 41.9114C27.3596 40.3485 27.7819 39.1018 28.6266 38.1713C29.4713 37.2408 30.6209 36.7756 32.0753 36.7756C33.4169 36.7756 34.4965 37.2273 35.314 38.1307C36.1361 39.0341 36.5472 40.2153 36.5472 41.6743C36.5472 43.2598 36.1271 44.5132 35.2869 45.4347C34.4468 46.3562 33.322 46.8169 31.9127 46.8169ZM31.994 37.8055C30.9732 37.8055 30.1443 38.1736 29.5074 38.9099C28.8705 39.6461 28.5521 40.6128 28.5521 41.8098C28.5521 43.0068 28.8615 43.9712 29.4803 44.7029C30.1037 45.4302 30.9145 45.7938 31.9127 45.7938C32.9787 45.7938 33.8189 45.446 34.4332 44.7504C35.0475 44.0548 35.3547 43.0813 35.3547 41.8301C35.3547 40.5473 35.0566 39.5558 34.4603 38.8557C33.8641 38.1555 33.042 37.8055 31.994 37.8055ZM49.7595 36.9382L47.0154 46.6543H45.6806L43.6818 39.5535C43.596 39.2509 43.5441 38.9212 43.526 38.5643H43.4989C43.4718 38.8986 43.4131 39.2238 43.3227 39.54L41.3104 46.6543H39.9892L37.1434 36.9382H38.3969L40.4634 44.3913C40.5493 44.7029 40.6035 45.0282 40.6261 45.3669H40.6599C40.6825 45.1275 40.7525 44.8023 40.87 44.3913L43.0178 36.9382H44.1087L46.1684 44.4455C46.2407 44.7029 46.2949 45.0056 46.3311 45.3534H46.3582C46.3762 45.1185 46.4372 44.8068 46.5411 44.4184L48.5263 36.9382H49.7595ZM50.62 46.2613V44.9198C50.7735 45.0553 50.9565 45.1772 51.1688 45.2856C51.3856 45.394 51.6114 45.4866 51.8463 45.5634C52.0857 45.6357 52.3251 45.6922 52.5645 45.7328C52.8039 45.7735 53.0253 45.7938 53.2285 45.7938C53.9287 45.7938 54.4504 45.6651 54.7937 45.4076C55.1415 45.1456 55.3154 44.7707 55.3154 44.2829C55.3154 44.0209 55.2567 43.7928 55.1392 43.5985C55.0263 43.4043 54.8682 43.2281 54.665 43.07C54.4617 42.9074 54.22 42.7539 53.94 42.6093C53.6644 42.4602 53.3663 42.3044 53.0456 42.1418C52.7068 41.9701 52.3906 41.7962 52.097 41.6201C51.8034 41.4439 51.5482 41.2497 51.3314 41.0374C51.1146 40.8251 50.9429 40.5857 50.8165 40.3192C50.6945 40.0482 50.6335 39.732 50.6335 39.3706C50.6335 38.9279 50.7306 38.544 50.9249 38.2188C51.1191 37.889 51.3743 37.618 51.6905 37.4057C52.0067 37.1934 52.3658 37.0353 52.7678 36.9314C53.1743 36.8275 53.5876 36.7756 54.0077 36.7756C54.9653 36.7756 55.6632 36.8908 56.1014 37.1211V38.4017C55.5277 38.0042 54.7914 37.8055 53.8925 37.8055C53.6441 37.8055 53.3957 37.8326 53.1472 37.8868C52.8988 37.9365 52.6775 38.02 52.4832 38.1375C52.289 38.2549 52.1309 38.4062 52.0089 38.5914C51.887 38.7766 51.826 39.0025 51.826 39.269C51.826 39.5174 51.8712 39.732 51.9615 39.9126C52.0564 40.0933 52.1941 40.2582 52.3748 40.4073C52.5555 40.5563 52.7746 40.7009 53.0321 40.8409C53.294 40.9809 53.5944 41.1345 53.9332 41.3016C54.281 41.4733 54.6107 41.654 54.9224 41.8437C55.2341 42.0334 55.5074 42.2434 55.7423 42.4738C55.9771 42.7042 56.1623 42.9594 56.2979 43.2394C56.4379 43.5195 56.5079 43.8402 56.5079 44.2016C56.5079 44.6804 56.413 45.0869 56.2233 45.4212C56.0381 45.7509 55.7852 46.0197 55.4645 46.2274C55.1483 46.4352 54.7824 46.5843 54.3668 46.6746C53.9513 46.7695 53.5131 46.8169 53.0524 46.8169C52.8988 46.8169 52.7091 46.8034 52.4832 46.7763C52.2574 46.7537 52.027 46.7175 51.7921 46.6678C51.5572 46.6227 51.3337 46.5662 51.1214 46.4985C50.9136 46.4262 50.7464 46.3471 50.62 46.2613ZM65.7497 46.6543H64.6114V42.2231H59.584V46.6543H58.4457V36.9382H59.584V41.2H64.6114V36.9382H65.7497V46.6543ZM69.4356 46.6543H68.2973V36.9382H69.4356V46.6543ZM73.135 42.982V46.6543H71.9968V36.9382H74.6663C75.7052 36.9382 76.5093 37.1911 77.0784 37.697C77.6521 38.203 77.9389 38.9166 77.9389 39.8381C77.9389 40.7596 77.6204 41.5139 76.9835 42.1011C76.3512 42.6884 75.4952 42.982 74.4156 42.982H73.135ZM73.135 37.9681V41.9521H74.3275C75.1135 41.9521 75.712 41.7737 76.123 41.4168C76.5386 41.0555 76.7464 40.5473 76.7464 39.8923C76.7464 38.6095 75.9875 37.9681 74.4698 37.9681H73.135Z" fill="white"/>
<path fill-rule="evenodd" clip-rule="evenodd" d="M125.035 3.42355C125.66 4.02272 126.201 4.69594 126.641 5.43311C127.505 6.85697 127.997 8.51308 127.997 10.2803V24.603C127.997 24.7242 127.895 24.8218 127.768 24.8218H123.165C123.039 24.8218 122.937 24.7242 122.937 24.603V10.2803C122.937 8.94058 122.371 7.72879 121.454 6.8536C120.537 5.97169 119.262 5.42638 117.856 5.43311C115.045 5.44321 112.818 7.72879 112.818 10.4217V24.603C112.818 24.7242 112.716 24.8218 112.589 24.8218H107.986C107.86 24.8218 107.758 24.7242 107.758 24.603V10.2803C107.758 8.51308 108.25 6.85697 109.114 5.43311C110 3.96213 111.282 2.7335 112.818 1.88525C114.304 1.05719 116.033 0.585938 117.877 0.585938C119.722 0.585938 121.451 1.05719 122.937 1.88525C123.707 2.30601 124.409 2.82439 125.035 3.42355ZM118.064 33.7797L120.692 29.8649H120.689C121.687 28.3771 121.406 26.4113 120.025 25.2366L118.022 23.53C117.938 23.4559 117.808 23.4559 117.72 23.53L115.717 25.2366C114.336 26.4113 114.055 28.3771 115.053 29.8649L117.681 33.7797C117.769 33.9143 117.973 33.9143 118.064 33.7797Z" fill="url(#paint0_linear_3340_190)"/>
<path d="M9.58642 12.0908V8.31746C9.59981 8.13699 9.54551 7.958 9.43415 7.81546C9.32278 7.67292 9.16234 7.57707 8.98416 7.54663C8.80599 7.57707 8.64554 7.67292 8.53418 7.81546C8.42281 7.958 8.36852 8.13699 8.38191 8.31746V11.0278C8.38191 12.4296 8.78858 12.672 12.5077 14.7576L13.8115 15.4818C17.0991 17.3218 17.9683 19.5473 17.9683 25.2041V25.8258C17.9683 31.579 14.6342 34.8208 8.83825 34.8208C3.04232 34.8208 0 31.6785 0 25.8289V22.7207H8.38191V26.5033C8.36761 26.6839 8.4211 26.8633 8.53191 27.0064C8.64272 27.1495 8.80288 27.2461 8.98106 27.2773C9.15266 27.2515 9.3088 27.1634 9.41984 27.0299C9.53087 26.8964 9.58904 26.7267 9.58331 26.5531V23.6998C9.58331 22.298 9.17663 22.1022 5.85802 20.2186L4.30582 19.3452C0.931323 17.4586 0 15.0404 0 9.38356V8.94842C0 3.10817 3.13856 0 8.84136 0C14.6373 0 17.9714 3.24182 17.9714 8.94842V12.0908H9.58642Z" fill="white"/>
<path d="M36.1503 8.0279H31.8041V34.3385H23.1118V8.0279H18.7656V0.484375H36.1503V8.0279Z" fill="white"/>
<path d="M46.4644 0.484375C52.2138 0.484375 55.5448 3.3843 55.5448 9.52915V9.76848C55.5448 15.4285 52.695 18.4962 50.6181 18.4962V18.4558C52.6484 18.4558 55.5448 21.909 55.5448 27.0841V27.4726C55.5448 30.0337 55.5697 34.3883 55.5697 34.3883L47.1878 34.3386C47.1878 34.3386 47.2933 30.1114 47.1629 27.3731V23.0217C47.1629 22.3441 46.8525 22.2478 46.3682 22.2478H45.6418V34.3386H37.5703V0.484375H46.4644ZM45.9522 14.7011H46.3589C46.8432 14.7011 47.1536 14.6048 47.1536 13.9303V8.75521C47.1536 8.13358 46.8432 8.0279 46.3589 8.0279H45.9522V14.7011Z" fill="white"/>
<path d="M65.7069 0.585938V34.4641H56.9453V0.585938H65.7069Z" fill="white"/>
<path d="M75.1918 0.484375L75.5022 24.0163C75.5022 24.1757 75.5652 24.3286 75.6775 24.4416C75.7898 24.5546 75.9422 24.6185 76.1013 24.6193C76.2611 24.6193 76.4143 24.5558 76.5272 24.4427C76.6402 24.3296 76.7036 24.1762 76.7036 24.0163L77.014 0.484375H85.0855L82.7696 34.3385H69.2344L67.1172 0.484375H75.1918Z" fill="white"/>
<path d="M95.133 8.0279V12.7181H98.9948V20.2648H95.133V26.7919H98.9948V34.3354H86.4375V0.484375H98.9948V8.0279H95.133Z" fill="white"/>
<defs>
<linearGradient id="paint0_linear_3340_190" x1="118" y1="11" x2="117.877" y2="33.8809" gradientUnits="userSpaceOnUse">
<stop stop-color="#4D3DFC"/>
<stop offset="1" stop-color="#AF00F4"/>
</linearGradient>
</defs>
</svg>
