<svg width="344" height="344" viewBox="0 0 344 344" fill="none" xmlns="http://www.w3.org/2000/svg">
<path fill-rule="evenodd" clip-rule="evenodd" d="M239.063 44.2967C244.93 49.8493 250.006 56.0882 254.126 62.9197C262.234 76.1149 266.848 91.4624 266.848 107.839V240.571C266.848 241.694 265.892 242.598 264.706 242.598H221.529C220.342 242.598 219.386 241.694 219.386 240.571V107.839C219.386 95.4241 214.08 84.1942 205.477 76.0837C196.875 67.9108 184.91 62.8573 171.726 62.9197C145.359 63.0133 124.462 84.1942 124.462 109.15V240.571C124.462 241.694 123.506 242.598 122.32 242.598H79.1424C77.9558 242.598 77 241.694 77 240.571V107.839C77 91.4624 81.6144 76.1149 89.7225 62.9197C98.0283 49.2878 110.059 37.9019 124.462 30.041C138.404 22.3672 154.62 18 171.924 18C189.228 18 205.444 22.3672 219.386 30.041C226.604 33.9403 233.196 38.7442 239.063 44.2967ZM173.697 325.606L198.351 289.327H198.318C207.679 275.539 205.042 257.322 192.089 246.435L173.302 230.619C172.511 229.933 171.291 229.933 170.467 230.619L151.68 246.435C138.727 257.322 136.09 275.539 145.451 289.327L170.105 325.606C170.929 326.854 172.84 326.854 173.697 325.606Z" fill="url(#paint0_linear_4748_233)"/>
<defs>
<linearGradient id="paint0_linear_4748_233" x1="257.716" y1="65.0657" x2="68.4451" y2="71.4123" gradientUnits="userSpaceOnUse">
<stop stop-color="#FF9A51"/>
<stop offset="1" stop-color="#F17743"/>
</linearGradient>
</defs>
</svg>
