<svg width="35" height="35" viewBox="0 0 35 35" fill="none" xmlns="http://www.w3.org/2000/svg">
<path fill-rule="evenodd" clip-rule="evenodd" d="M24.7769 3.83762C25.4024 4.43678 25.9435 5.11 26.3827 5.84717C27.2471 7.27103 27.739 8.92715 27.739 10.6943V25.0171C27.739 25.1382 27.6371 25.2359 27.5106 25.2359H22.9076C22.7811 25.2359 22.6792 25.1382 22.6792 25.0171V10.6943C22.6792 9.35464 22.1135 8.14285 21.1965 7.26766C20.2794 6.38575 19.0039 5.84044 17.5984 5.84717C14.7874 5.85727 12.5597 8.14285 12.5597 10.8357V25.0171C12.5597 25.1382 12.4578 25.2359 12.3314 25.2359H7.72839C7.6019 25.2359 7.5 25.1382 7.5 25.0171V10.6943C7.5 8.92715 7.99192 7.27103 8.85629 5.84717C9.74175 4.37619 11.0243 3.14757 12.5597 2.29931C14.046 1.47125 15.7748 1 17.6195 1C19.4642 1 21.1929 1.47125 22.6792 2.29931C23.4487 2.72007 24.1515 3.23845 24.7769 3.83762ZM17.8094 34.194L20.4377 30.2792H20.4342C21.432 28.7914 21.1509 26.8256 19.7701 25.6508L17.7672 23.9442C17.6829 23.8702 17.5529 23.8702 17.4651 23.9442L15.4622 25.6508C14.0814 26.8256 13.8003 28.7914 14.7982 30.2792L17.4264 34.194C17.5143 34.3286 17.7181 34.3286 17.8094 34.194Z" fill="url(#paint0_linear_3352_207)"/>
<defs>
<linearGradient id="paint0_linear_3352_207" x1="17.7422" y1="11.4141" x2="17.6195" y2="34.295" gradientUnits="userSpaceOnUse">
<stop stop-color="#4D3DFC"/>
<stop offset="1" stop-color="#AF00F4"/>
</linearGradient>
</defs>
</svg>
